<svg width="1130" height="128" viewBox="0 0 1130 128" fill="none" xmlns="http://www.w3.org/2000/svg">
<g opacity="0.6">
<path d="M126.811 76C126.811 104.719 103.746 128 75.2941 128C46.842 128 23.7771 104.719 23.7771 76C23.7771 47.2812 46.842 24 75.2941 24C103.746 24 126.811 47.2812 126.811 76Z" fill="white"/>
<path d="M79.257 40C79.257 62.0914 61.5147 80 39.6285 80C17.7423 80 0 62.0914 0 40C0 17.9086 17.7423 0 39.6285 0C61.5147 0 79.257 17.9086 79.257 40Z" fill="white"/>
</g>
<path d="M188.514 111.427V59.4554H174.916V46.6454H188.514V40.8504C188.514 37.0684 189.017 33.7541 190.024 30.9074C191.032 28.0201 192.401 25.5801 194.134 23.5874C195.866 21.5948 197.84 19.9884 200.056 18.7684C202.313 17.5078 204.71 16.5928 207.248 16.0234C209.826 15.4541 212.385 15.1694 214.923 15.1694C217.34 15.1694 219.173 15.3118 220.422 15.5964C221.712 15.8811 222.578 16.1251 223.021 16.3284V29.2604C222.538 29.0978 221.692 28.9148 220.483 28.7114C219.314 28.4674 218.045 28.3454 216.676 28.3454C214.218 28.3454 212.183 28.7114 210.572 29.4434C208.96 30.1348 207.711 31.1108 206.825 32.3714C205.939 33.6321 205.314 35.0961 204.951 36.7634C204.589 38.3901 204.408 40.1794 204.408 42.1314V46.6454H222.175V59.4554H204.408V111.427H188.514Z" fill="white"/>
<path d="M254.676 112.647C250.123 112.647 246.336 111.875 243.314 110.329C240.333 108.784 237.976 106.751 236.244 104.229C234.552 101.708 233.343 98.9224 232.618 95.8724C231.933 92.8224 231.59 89.7724 231.59 86.7224C231.59 85.2178 231.59 83.6521 231.59 82.0254C231.59 80.3988 231.59 78.7518 231.59 77.0844V46.6454H247.545V74.5834C247.545 76.0474 247.545 77.4504 247.545 78.7924C247.545 80.1344 247.545 81.3951 247.545 82.5744C247.545 85.4618 247.887 88.1458 248.572 90.6264C249.257 93.0664 250.506 95.0388 252.319 96.5434C254.172 98.0481 256.771 98.8004 260.115 98.8004C263.298 98.8004 266.037 97.8651 268.334 95.9944C270.63 94.0831 272.403 91.6838 273.652 88.7964C274.941 85.9091 275.586 82.9811 275.586 80.0124L281.025 83.6724C281.025 87.6171 280.421 91.3381 279.212 94.8354C278.003 98.2921 276.251 101.362 273.954 104.046C271.658 106.73 268.878 108.845 265.614 110.39C262.391 111.895 258.745 112.647 254.676 112.647ZM275.586 111.427V46.6454H291.48V111.427H275.586Z" fill="white"/>
<path d="M332.704 112.769C328.877 112.769 325.23 112.342 321.766 111.488C318.341 110.634 315.279 109.353 312.58 107.645C309.921 105.937 307.805 103.823 306.234 101.301C304.703 98.7394 303.938 95.7911 303.938 92.4564C303.938 92.2124 303.938 91.9684 303.938 91.7244C303.938 91.4804 303.938 91.2568 303.938 91.0534H319.771C319.771 91.2568 319.771 91.4398 319.771 91.6024C319.771 91.7244 319.771 91.9074 319.771 92.1514C319.771 94.7948 320.96 96.7874 323.337 98.1294C325.754 99.4308 329.038 100.081 333.187 100.081C335.444 100.081 337.559 99.8374 339.533 99.3494C341.547 98.8614 343.159 98.1091 344.368 97.0924C345.617 96.0758 346.241 94.7744 346.241 93.1884C346.241 90.6264 344.932 88.7964 342.313 87.6984C339.734 86.6004 335.665 85.6041 330.105 84.7094C327.043 84.1808 324.022 83.4691 321.04 82.5744C318.059 81.6798 315.339 80.4801 312.882 78.9754C310.464 77.4708 308.51 75.6001 307.02 73.3634C305.569 71.1268 304.844 68.4021 304.844 65.1894C304.844 60.9194 306.093 57.3408 308.591 54.4534C311.129 51.5254 314.514 49.3091 318.744 47.8044C323.014 46.2998 327.708 45.5474 332.825 45.5474C337.74 45.5474 342.313 46.3608 346.543 47.9874C350.774 49.6141 354.178 51.9524 356.756 55.0024C359.375 58.0524 360.685 61.7328 360.685 66.0434C360.685 66.2061 360.685 66.3891 360.685 66.5924C360.685 66.7551 360.685 66.8974 360.685 67.0194H344.972C344.972 66.8974 344.972 66.7754 344.972 66.6534C344.972 66.5314 344.972 66.3891 344.972 66.2264C344.972 64.3558 344.388 62.8308 343.219 61.6514C342.051 60.4721 340.54 59.5978 338.687 59.0284C336.834 58.4591 334.88 58.1744 332.825 58.1744C331.012 58.1744 329.138 58.3778 327.205 58.7844C325.271 59.1504 323.659 59.8214 322.37 60.7974C321.081 61.7328 320.436 63.0544 320.436 64.7624C320.436 66.3891 321.101 67.7108 322.43 68.7274C323.76 69.7441 325.613 70.5981 327.99 71.2894C330.367 71.9401 333.107 72.5298 336.209 73.0584C339.15 73.5464 342.111 74.2174 345.093 75.0714C348.114 75.9254 350.874 77.0641 353.372 78.4874C355.87 79.9108 357.885 81.7814 359.416 84.0994C360.987 86.3768 361.772 89.2031 361.772 92.5784C361.772 96.1571 360.967 99.2071 359.355 101.728C357.744 104.25 355.548 106.344 352.768 108.011C350.028 109.638 346.926 110.838 343.461 111.61C339.996 112.383 336.411 112.769 332.704 112.769Z" fill="white"/>
<path d="M380.806 84.2214V72.8144H425.708L423.895 75.8644C423.895 75.6204 423.895 75.3561 423.895 75.0714C423.895 74.7461 423.895 74.4818 423.895 74.2784C423.895 71.4724 423.271 68.8494 422.022 66.4094C420.773 63.9288 418.879 61.9361 416.341 60.4314C413.803 58.8861 410.58 58.1134 406.672 58.1134C402.804 58.1134 399.44 58.9471 396.579 60.6144C393.759 62.2411 391.563 64.5998 389.992 67.6904C388.461 70.7811 387.696 74.4818 387.696 78.7924C387.696 83.2251 388.441 87.0478 389.932 90.2604C391.422 93.4324 393.598 95.8724 396.458 97.5804C399.359 99.2478 402.884 100.081 407.034 100.081C409.854 100.081 412.292 99.8171 414.347 99.2884C416.401 98.7598 418.073 98.0481 419.363 97.1534C420.692 96.2181 421.679 95.2218 422.324 94.1644C423.009 93.1071 423.412 92.0498 423.533 90.9924H439.366C439.124 93.7171 438.218 96.3808 436.647 98.9834C435.116 101.545 432.96 103.884 430.18 105.998C427.4 108.072 424.016 109.74 420.027 111C416.079 112.22 411.567 112.83 406.49 112.83C399.601 112.83 393.578 111.407 388.421 108.56C383.264 105.714 379.235 101.749 376.334 96.6654C373.474 91.5821 372.043 85.7668 372.043 79.2194C372.043 72.5094 373.494 66.6331 376.395 61.5904C379.336 56.5478 383.405 52.6234 388.602 49.8174C393.799 46.9708 399.762 45.5474 406.49 45.5474C413.42 45.5474 419.403 46.9708 424.439 49.8174C429.515 52.6641 433.423 56.6291 436.163 61.7124C438.903 66.7551 440.273 72.6314 440.273 79.3414C440.273 80.1954 440.252 81.1104 440.212 82.0864C440.172 83.0624 440.111 83.7741 440.031 84.2214H380.806Z" fill="white"/>
<path d="M469.935 16.0844V111.427H454.283V16.0844H469.935Z" fill="white"/>
<path d="M508.188 112.769C503.393 112.769 499.183 112.017 495.557 110.512C491.931 108.967 489.091 106.751 487.036 103.863C484.981 100.976 483.954 97.4991 483.954 93.4324C483.954 88.9998 485.142 85.3601 487.519 82.5134C489.937 79.6261 493.18 77.4098 497.249 75.8644C501.318 74.2784 505.831 73.2618 510.786 72.8144C518.119 72.0824 523.235 71.3911 526.136 70.7404C529.077 70.0491 530.548 68.9511 530.548 67.4464C530.548 67.4058 530.548 67.3854 530.548 67.3854C530.548 67.3448 530.548 67.3244 530.548 67.3244C530.548 64.4778 529.279 62.2818 526.741 60.7364C524.202 59.1911 520.617 58.4184 515.983 58.4184C511.108 58.4184 507.362 59.2928 504.743 61.0414C502.164 62.7494 500.875 65.4741 500.875 69.2154H485.162C485.162 64.1321 486.492 59.8418 489.151 56.3444C491.85 52.8064 495.537 50.1224 500.21 48.2924C504.884 46.4624 510.182 45.5474 516.104 45.5474C521.624 45.5474 526.68 46.3811 531.273 48.0484C535.866 49.7158 539.552 52.2371 542.332 55.6124C545.112 58.9878 546.502 63.1968 546.502 68.2394C546.502 69.0934 546.502 69.9474 546.502 70.8014C546.502 71.6554 546.502 72.5094 546.502 73.3634V97.7634C546.502 99.3088 546.543 100.834 546.623 102.338C546.744 103.802 546.966 105.124 547.288 106.303C547.691 107.605 548.174 108.703 548.738 109.597C549.302 110.492 549.746 111.102 550.068 111.427H534.355C534.073 111.143 533.67 110.594 533.147 109.78C532.663 108.926 532.22 107.95 531.817 106.852C531.414 105.632 531.112 104.331 530.91 102.948C530.709 101.525 530.608 99.9594 530.608 98.2514L533.751 100.447C532.542 102.928 530.689 105.104 528.191 106.974C525.733 108.804 522.792 110.228 519.368 111.244C515.943 112.261 512.216 112.769 508.188 112.769ZM512.055 100.142C515.359 100.142 518.421 99.5731 521.241 98.4344C524.061 97.2958 526.338 95.5471 528.07 93.1884C529.803 90.7891 530.669 87.7188 530.669 83.9774V75.3154L534.536 79.7074C531.958 80.6834 528.856 81.4968 525.23 82.1474C521.604 82.7574 517.937 83.2454 514.231 83.6114C509.477 84.0588 505.891 84.8924 503.474 86.1124C501.097 87.3324 499.908 89.3251 499.908 92.0904C499.908 94.7744 500.915 96.7874 502.93 98.1294C504.944 99.4714 507.986 100.142 512.055 100.142Z" fill="white"/>
<path d="M597.399 112.769C592.403 112.769 587.769 111.468 583.499 108.865C579.268 106.222 575.844 102.623 573.225 98.0684C570.647 93.5138 569.357 88.3898 569.357 82.6964C569.357 82.5338 569.357 82.3914 569.357 82.2694C569.357 82.1068 569.357 81.9644 569.357 81.8424L577.214 81.6594C577.214 81.7408 577.214 81.8424 577.214 81.9644C577.214 82.0864 577.214 82.1881 577.214 82.2694C577.214 85.4414 577.999 88.2678 579.571 90.7484C581.142 93.1884 583.177 95.1201 585.674 96.5434C588.213 97.9261 590.912 98.6174 593.773 98.6174C598.406 98.6174 602.354 97.0111 605.618 93.7984C608.881 90.5858 610.513 85.6041 610.513 78.8534C610.513 72.0621 608.881 67.1008 605.618 63.9694C602.394 60.7974 598.446 59.2114 593.773 59.2114C590.952 59.2114 588.273 59.9028 585.735 61.2854C583.237 62.6274 581.182 64.4981 579.571 66.8974C577.999 69.2968 577.214 72.1028 577.214 75.3154L569.357 74.9494C569.357 69.2154 570.647 64.1321 573.225 59.6994C575.844 55.2668 579.268 51.8101 583.499 49.3294C587.769 46.8081 592.403 45.5474 597.399 45.5474C602.596 45.5474 607.431 46.8488 611.903 49.4514C616.415 52.0134 620.041 55.7751 622.781 60.7364C625.561 65.6571 626.951 71.6961 626.951 78.8534C626.951 86.2141 625.601 92.4158 622.902 97.4584C620.202 102.501 616.616 106.324 612.144 108.926C607.672 111.488 602.757 112.769 597.399 112.769ZM561.259 111.427V16.0844H577.214V111.427H561.259Z" fill="white"/>
<path d="M694.455 112.769C688.573 112.769 683.194 111.448 678.319 108.804C673.444 106.12 669.536 102.277 666.595 97.2754C663.694 92.2734 662.244 86.2548 662.244 79.2194C662.244 72.1841 663.694 66.1858 666.595 61.2244C669.536 56.2631 673.444 52.4811 678.319 49.8784C683.194 47.2351 688.573 45.9134 694.455 45.9134C698.967 45.9134 702.996 46.6251 706.541 48.0484C710.087 49.4311 713.088 51.2814 715.546 53.5994C718.004 55.8768 719.877 58.3778 721.166 61.1024C722.455 63.8271 723.1 66.5111 723.1 69.1544C723.1 69.1951 723.1 69.2561 723.1 69.3374C723.1 69.3781 723.1 69.4391 723.1 69.5204H715.667C715.667 69.3171 715.647 69.0934 715.606 68.8494C715.606 68.5648 715.586 68.3004 715.546 68.0564C715.183 65.1284 714.035 62.5258 712.101 60.2484C710.167 57.9711 707.69 56.1614 704.668 54.8194C701.646 53.4774 698.222 52.8064 694.394 52.8064C690.083 52.8064 686.055 53.8028 682.308 55.7954C678.601 57.7474 675.6 60.6754 673.303 64.5794C671.007 68.4834 669.858 73.3634 669.858 79.2194C669.858 85.0348 670.986 89.9351 673.243 93.9204C675.539 97.8651 678.541 100.854 682.247 102.887C685.994 104.88 690.043 105.876 694.394 105.876C699.148 105.876 703.077 105.083 706.179 103.497C709.281 101.911 711.618 99.8578 713.189 97.3364C714.76 94.8151 715.586 92.1921 715.667 89.4674H723.1C723.1 92.1921 722.476 94.9371 721.227 97.7024C720.018 100.468 718.205 102.989 715.788 105.266C713.411 107.544 710.429 109.374 706.844 110.756C703.298 112.098 699.169 112.769 694.455 112.769Z" fill="white"/>
<path d="M735.97 111.61V46.8284H743.463V65.9214L740.804 65.0674C741.046 63.0341 741.63 60.9194 742.557 58.7234C743.524 56.4868 744.853 54.3924 746.545 52.4404C748.238 50.4884 750.353 48.9228 752.891 47.7434C755.469 46.5234 758.531 45.9134 762.077 45.9134C764.655 45.9134 766.73 46.1371 768.301 46.5844C769.873 47.0318 770.86 47.3774 771.263 47.6214L769.208 54.9414C768.805 54.6568 767.979 54.2908 766.73 53.8434C765.481 53.3961 763.688 53.1724 761.352 53.1724C757.967 53.1724 755.127 53.8434 752.831 55.1854C750.534 56.4868 748.701 58.1948 747.331 60.3094C745.961 62.4241 744.974 64.6811 744.37 67.0804C743.766 69.4391 743.463 71.7164 743.463 73.9124V111.61H735.97Z" fill="white"/>
<path d="M778.855 82.3914V75.6204H830.827L829.377 77.6944C829.377 77.4504 829.377 77.2471 829.377 77.0844C829.377 76.8811 829.377 76.6778 829.377 76.4744C829.377 72.2858 828.491 68.3818 826.718 64.7624C824.945 61.1431 822.367 58.2354 818.982 56.0394C815.638 53.8434 811.549 52.7454 806.715 52.7454C801.799 52.7454 797.468 53.8841 793.721 56.1614C789.974 58.3981 787.053 61.5091 784.958 65.4944C782.863 69.4391 781.816 74.0344 781.816 79.2804C781.816 84.5671 782.843 89.2234 784.898 93.2494C786.993 97.2348 789.914 100.346 793.661 102.582C797.408 104.778 801.779 105.876 806.775 105.876C810.441 105.876 813.624 105.429 816.323 104.534C819.063 103.599 821.319 102.379 823.092 100.874C824.905 99.3698 826.275 97.7838 827.201 96.1164C828.168 94.4084 828.732 92.8021 828.894 91.2974H836.327C836.166 93.6968 835.4 96.1571 834.03 98.6784C832.701 101.159 830.787 103.477 828.289 105.632C825.832 107.788 822.77 109.536 819.103 110.878C815.477 112.18 811.287 112.83 806.533 112.83C800.329 112.83 794.809 111.407 789.974 108.56C785.18 105.714 781.393 101.789 778.613 96.7874C775.873 91.7448 774.503 85.9498 774.503 79.4024C774.503 72.8144 775.893 67.0194 778.673 62.0174C781.453 56.9748 785.261 53.0301 790.095 50.1834C794.93 47.3368 800.429 45.9134 806.594 45.9134C812.879 45.9134 818.318 47.3571 822.911 50.2444C827.504 53.1318 831.049 57.0561 833.547 62.0174C836.045 66.9381 837.294 72.4688 837.294 78.6094C837.294 79.1381 837.274 79.8091 837.233 80.6224C837.233 81.4358 837.213 82.0254 837.173 82.3914H778.855Z" fill="white"/>
<path d="M872.176 112.769C867.261 112.769 862.97 112.017 859.304 110.512C855.638 109.008 852.797 106.832 850.783 103.985C848.809 101.098 847.821 97.6211 847.821 93.5544C847.821 89.4471 848.869 86.0311 850.964 83.3064C853.059 80.5411 856.04 78.3858 859.908 76.8404C863.816 75.2951 868.429 74.2581 873.747 73.7294C881.926 72.8754 887.788 72.0214 891.334 71.1674C894.919 70.2728 896.712 68.8494 896.712 66.8974C896.712 66.7754 896.712 66.6534 896.712 66.5314C896.712 66.3688 896.712 66.2061 896.712 66.0434C896.712 61.8548 895.02 58.6014 891.636 56.2834C888.252 53.9654 883.437 52.8064 877.192 52.8064C870.665 52.8064 865.569 54.1078 861.902 56.7104C858.276 59.3131 856.463 63.1764 856.463 68.3004H849.091C849.091 63.6238 850.259 59.6181 852.596 56.2834C854.933 52.9081 858.216 50.3461 862.446 48.5974C866.677 46.8081 871.612 45.9134 877.253 45.9134C882.329 45.9134 886.902 46.7064 890.971 48.2924C895.04 49.8784 898.263 52.1964 900.64 55.2464C903.058 58.2558 904.266 61.9768 904.266 66.4094C904.266 67.2634 904.266 68.1174 904.266 68.9714C904.266 69.7848 904.266 70.6184 904.266 71.4724V100.142C904.266 101.525 904.327 102.847 904.448 104.107C904.569 105.368 904.75 106.466 904.992 107.401C905.354 108.581 905.737 109.516 906.14 110.207C906.543 110.899 906.865 111.366 907.107 111.61H899.553C899.391 111.448 899.13 111.021 898.767 110.329C898.404 109.597 898.042 108.743 897.679 107.767C897.357 106.751 897.135 105.612 897.014 104.351C896.893 103.091 896.833 101.566 896.833 99.7764L898.042 100.691C896.752 103.091 894.879 105.205 892.421 107.035C889.964 108.825 887.023 110.228 883.598 111.244C880.174 112.261 876.366 112.769 872.176 112.769ZM873.324 105.998C877.676 105.998 881.604 105.287 885.109 103.863C888.654 102.399 891.475 100.325 893.57 97.6414C895.665 94.9168 896.712 91.6228 896.712 87.7594V72.6314L898.344 75.4374C896.007 76.6168 892.824 77.5724 888.795 78.3044C884.766 78.9958 880.395 79.5651 875.681 80.0124C869.034 80.6631 863.977 81.9441 860.513 83.8554C857.088 85.7668 855.376 88.8778 855.376 93.1884C855.376 97.3364 856.887 100.508 859.908 102.704C862.93 104.9 867.402 105.998 873.324 105.998Z" fill="white"/>
<path d="M939.293 112.586C937.48 112.586 935.707 112.363 933.975 111.915C932.283 111.468 930.752 110.675 929.382 109.536C928.053 108.357 927.005 106.751 926.24 104.717C925.474 102.684 925.091 100.102 925.091 96.9704C925.091 96.1164 925.091 95.2421 925.091 94.3474C925.091 93.4121 925.091 92.4361 925.091 91.4194V53.4774H909.62V46.8284H920.74C921.788 46.8284 922.614 46.7878 923.218 46.7064C923.822 46.6251 924.245 46.4218 924.487 46.0964C924.769 45.7711 924.93 45.2628 924.97 44.5714C925.051 43.8801 925.091 42.9244 925.091 41.7044V25.9054H932.585V46.8284H953.132V53.4774H932.585V88.9184C932.585 89.8944 932.585 90.8298 932.585 91.7244C932.585 92.6191 932.585 93.4528 932.585 94.2254C932.585 97.8854 933.109 100.752 934.156 102.826C935.244 104.9 937.279 105.937 940.26 105.937C941.388 105.937 942.496 105.836 943.584 105.632C944.672 105.429 945.498 105.205 946.062 104.961V111.549C945.377 111.834 944.43 112.078 943.221 112.281C942.013 112.485 940.703 112.586 939.293 112.586Z" fill="white"/>
<path d="M963.04 111.61V46.8284H970.413V111.61H963.04ZM966.787 30.4804C965.215 30.4804 963.866 30.0331 962.738 29.1384C961.61 28.2031 961.045 26.9628 961.045 25.4174C961.045 23.9128 961.61 22.7131 962.738 21.8184C963.866 20.8831 965.215 20.4154 966.787 20.4154C968.318 20.4154 969.647 20.8831 970.775 21.8184C971.903 22.7131 972.467 23.9128 972.467 25.4174C972.467 26.9628 971.903 28.2031 970.775 29.1384C969.647 30.0331 968.318 30.4804 966.787 30.4804Z" fill="white"/>
<path d="M1035.35 46.8284L1013.17 111.61H1003.62L980.896 46.8284H988.631L1009 107.157H1007.79L1027.61 46.8284H1035.35Z" fill="white"/>
<path d="M1043.16 82.3914V75.6204H1095.13L1093.68 77.6944C1093.68 77.4504 1093.68 77.2471 1093.68 77.0844C1093.68 76.8811 1093.68 76.6778 1093.68 76.4744C1093.68 72.2858 1092.79 68.3818 1091.02 64.7624C1089.25 61.1431 1086.67 58.2354 1083.28 56.0394C1079.94 53.8434 1075.85 52.7454 1071.02 52.7454C1066.1 52.7454 1061.77 53.8841 1058.02 56.1614C1054.28 58.3981 1051.36 61.5091 1049.26 65.4944C1047.17 69.4391 1046.12 74.0344 1046.12 79.2804C1046.12 84.5671 1047.15 89.2234 1049.2 93.2494C1051.29 97.2348 1054.22 100.346 1057.96 102.582C1061.71 104.778 1066.08 105.876 1071.08 105.876C1074.74 105.876 1077.93 105.429 1080.63 104.534C1083.36 103.599 1085.62 102.379 1087.39 100.874C1089.21 99.3698 1090.58 97.7838 1091.5 96.1164C1092.47 94.4084 1093.03 92.8021 1093.2 91.2974H1100.63C1100.47 93.6968 1099.7 96.1571 1098.33 98.6784C1097 101.159 1095.09 103.477 1092.59 105.632C1090.13 107.788 1087.07 109.536 1083.41 110.878C1079.78 112.18 1075.59 112.83 1070.84 112.83C1064.63 112.83 1059.11 111.407 1054.28 108.56C1049.48 105.714 1045.69 101.789 1042.91 96.7874C1040.18 91.7448 1038.81 85.9498 1038.81 79.4024C1038.81 72.8144 1040.2 67.0194 1042.98 62.0174C1045.76 56.9748 1049.56 53.0301 1054.4 50.1834C1059.23 47.3368 1064.73 45.9134 1070.9 45.9134C1077.18 45.9134 1082.62 47.3571 1087.21 50.2444C1091.81 53.1318 1095.35 57.0561 1097.85 62.0174C1100.35 66.9381 1101.6 72.4688 1101.6 78.6094C1101.6 79.1381 1101.58 79.8091 1101.54 80.6224C1101.54 81.4358 1101.52 82.0254 1101.47 82.3914H1043.16Z" fill="white"/>
<path d="M39.6282 80C61.5144 80 79.2567 62.0914 79.2567 40C79.2567 34.3128 78.0809 28.9028 75.9611 24.0043C75.739 24.0014 75.5166 24 75.2939 24C46.8418 24 23.7769 47.2812 23.7769 76C23.7769 76.2249 23.7783 76.4493 23.7811 76.6735C28.6341 78.8131 33.9939 80 39.6282 80Z" fill="white"/>
</svg>
